<?xml version="1.0" encoding="UTF-8" standalone="no"?>
<svg
   xmlns:dc="http://purl.org/dc/elements/1.1/"
   xmlns:cc="http://creativecommons.org/ns#"
   xmlns:rdf="http://www.w3.org/1999/02/22-rdf-syntax-ns#"
   xmlns:svg="http://www.w3.org/2000/svg"
   xmlns="http://www.w3.org/2000/svg"
   xmlns:sodipodi="http://sodipodi.sourceforge.net/DTD/sodipodi-0.dtd"
   xmlns:inkscape="http://www.inkscape.org/namespaces/inkscape"
   version="1.1"
   x="0px"
   y="0px"
   viewBox="0 0 100 100"
   enable-background="new 0 0 100 100"
   xml:space="preserve"
   id="svg40"
   sodipodi:docname="logo.svg"
   width="100"
   height="100"
   inkscape:version="1.0.1 (1.0.1+r73)"><metadata
     id="metadata46"><rdf:RDF><cc:Work
         rdf:about=""><dc:format>image/svg+xml</dc:format><dc:type
           rdf:resource="http://purl.org/dc/dcmitype/StillImage" /><dc:title></dc:title></cc:Work></rdf:RDF></metadata><defs
     id="defs44" /><sodipodi:namedview
     pagecolor="#ffffff"
     bordercolor="#666666"
     borderopacity="1"
     objecttolerance="10"
     gridtolerance="10"
     guidetolerance="10"
     inkscape:pageopacity="0"
     inkscape:pageshadow="2"
     inkscape:window-width="1920"
     inkscape:window-height="1048"
     id="namedview42"
     showgrid="false"
     inkscape:pagecheckerboard="true"
     inkscape:zoom="4.8309535"
     inkscape:cx="59.034105"
     inkscape:cy="65.855929"
     inkscape:window-x="0"
     inkscape:window-y="0"
     inkscape:window-maximized="1"
     inkscape:current-layer="svg40" /><path
     d="m 69.2,22.5 c 7,1.1 12.8,4.4 17.3,9.9 4.2,5.2 6.2,11.2 6.1,18 -0.1,4.8 -0.7,9.4 -2,14 -2.8,10.1 -7.9,18.9 -15.7,26 -4.7,4.2 -10.3,5.6 -16.5,4.7 -2.6,-0.4 -5.1,-1.2 -7.6,-1.8 -0.5,-0.1 -1,-0.1 -1.6,0 -1.9,0.5 -3.8,1 -5.7,1.5 C 37,96.3 31,95 25.7,90.8 23.7,89.2 22,87.2 20.4,85.3 15.4,79.3 11.8,72.6 9.7,65.2 8.5,61.2 7.8,57 7.6,52.8 7.4,50.3 7.4,47.7 7.8,45.2 c 1.1,-6.4 4,-11.8 8.9,-16.1 6.1,-5.4 13.4,-7.3 21.4,-6.8 3,0.2 6,0.7 8.9,1.4 0.5,0.1 0.6,0 0.6,-0.5 0,-1.1 -0.1,-2.2 -0.4,-3.3 C 46.1,15.5 43.7,12.1 39.8,9.9 39,9.4 39,9.4 39.4,8.5 39.9,7.4 40.5,6.4 40.9,5.3 41.1,4.9 41.4,4.8 41.8,5 c 0.7,0.4 1.4,0.8 2.1,1.3 2.8,1.9 4.9,4.4 6.5,7.4 0.3,0.5 0.4,0.5 0.7,0 0.5,-0.8 1.2,-1.6 1.9,-2.3 4.4,-4.5 9.7,-6.7 16,-6.9 3.7,-0.1 7,1 10.4,2.3 0.4,0.2 0.4,0.4 0.2,0.7 -1.7,2.6 -3.4,5.1 -5.8,7.1 -4.1,3.3 -8.7,5.2 -14,5.3 -2.4,0.1 -4.7,-0.3 -7,-1 -0.3,-0.1 -0.6,-0.2 -0.5,0.3 0.3,1.3 0.5,2.7 0.4,4.1 0,0.4 0.1,0.4 0.5,0.3 3.9,-1 7.8,-1.5 12.5,-1.5 0.6,0.1 2.1,0.2 3.5,0.4 z m -37,10 c -4,0.6 -7.4,2.3 -10.1,5.2 -3,3.1 -4.5,6.9 -4.7,11.1 -0.1,1.1 0.1,2.1 1.1,2.7 0.8,0.6 1.8,0.7 2.7,0.3 0.9,-0.5 1.4,-1.3 1.4,-2.3 0,-1.3 0.2,-2.6 0.7,-3.9 1.8,-4.9 6.1,-8 11.5,-8.1 1.3,0 2.3,-0.9 2.5,-2.1 0.2,-1.4 -0.5,-2.5 -1.8,-3 -0.5,-0.1 -0.9,-0.1 -1.4,-0.1 -0.6,0 -1.2,0.1 -1.9,0.2 z"
     id="path38"
     style="fill:#309e5e;fill-opacity:1" /></svg>
